<svg width="564.9124633789062px" height="124.39999999999999px" xmlns="http://www.w3.org/2000/svg" viewBox="-32.45623168945309 12.800000000000004 564.9124633789062 124.39999999999999" style="background: rgba(255, 255, 255, 0);" preserveAspectRatio="xMidYMid"><defs><filter id="editing-extrusion" x="-100%" y="-100%" width="300%" height="300%"><feFlood result="color1" flood-color="#d7d7d7"></feFlood><feConvolveMatrix order="2,2" divisor="1" kernelMatrix="1 0 0 1" in="SourceAlpha" result="extrude"></feConvolveMatrix><feComposite in="color1" in2="extrude" result="comp-extrude" operator="in"></feComposite><feOffset dx="1" dy="1" in="comp-extrude" result="offset-extrude"></feOffset><feMerge><feMergeNode in="offset-extrude"></feMergeNode><feMergeNode in="SourceGraphic"></feMergeNode></feMerge></filter></defs><g filter="url(#editing-extrusion)"><g transform="translate(50.38998889923096, 103.73500442504883)"><path d="M54.84-12.81L54.84-12.81L54.84-12.81Q54.84-10.13 53.84-7.80L53.84-7.80L53.84-7.80Q52.84-5.47 51.11-3.73L51.11-3.73L51.11-3.73Q49.38-2 47.05-1L47.05-1L47.05-1Q44.72 0 42.06 0L42.06 0L3.13 0L3.13-6.41L42.06-6.41L42.06-6.41Q43.41-6.41 44.56-6.91L44.56-6.91L44.56-6.91Q45.72-7.41 46.58-8.28L46.58-8.28L46.58-8.28Q47.44-9.16 47.94-10.33L47.94-10.33L47.94-10.33Q48.44-11.50 48.44-12.81L48.44-12.81L48.44-12.81Q48.44-14.13 47.94-15.28L47.94-15.28L47.94-15.28Q47.44-16.44 46.58-17.31L46.58-17.31L46.58-17.31Q45.72-18.19 44.56-18.69L44.56-18.69L44.56-18.69Q43.41-19.19 42.06-19.19L42.06-19.19L15.94-19.19L15.94-19.19Q13.31-19.19 10.97-20.19L10.97-20.19L10.97-20.19Q8.63-21.19 6.89-22.92L6.89-22.92L6.89-22.92Q5.16-24.66 4.14-27L4.14-27L4.14-27Q3.13-29.34 3.13-32L3.13-32L3.13-32Q3.13-34.63 4.14-36.97L4.14-36.97L4.14-36.97Q5.16-39.31 6.89-41.05L6.89-41.05L6.89-41.05Q8.63-42.78 10.97-43.80L10.97-43.80L10.97-43.80Q13.31-44.81 15.94-44.81L15.94-44.81L51.66-44.81L51.66-38.41L15.94-38.41L15.94-38.41Q14.63-38.41 13.45-37.91L13.45-37.91L13.45-37.91Q12.28-37.41 11.41-36.53L11.41-36.53L11.41-36.53Q10.53-35.66 10.03-34.48L10.03-34.48L10.03-34.48Q9.53-33.31 9.53-32L9.53-32L9.53-32Q9.53-30.69 10.03-29.52L10.03-29.52L10.03-29.52Q10.53-28.34 11.41-27.47L11.41-27.47L11.41-27.47Q12.28-26.59 13.45-26.09L13.45-26.09L13.45-26.09Q14.63-25.59 15.94-25.59L15.94-25.59L42.06-25.59L42.06-25.59Q44.72-25.59 47.05-24.58L47.05-24.58L47.05-24.58Q49.38-23.56 51.11-21.83L51.11-21.83L51.11-21.83Q52.84-20.09 53.84-17.77L53.84-17.77L53.84-17.77Q54.84-15.44 54.84-12.81ZM19.06-54.34L21.19-57.47L28.97-53.44L36.78-57.47L38.91-54.34L28.97-47.69L19.06-54.34ZM80.47-28.88L80.47 0L74.06 0L74.06-28.88L57.13-28.88L57.13-35.19L97.38-35.19L97.38-28.88L80.47-28.88ZM143.88-17.66L143.88-17.66L143.88-17.66Q143.88-14 142.72-10.80L142.72-10.80L142.72-10.80Q141.56-7.59 139.42-5.19L139.42-5.19L139.42-5.19Q137.28-2.78 134.30-1.39L134.30-1.39L134.30-1.39Q131.31 0 127.66 0L127.66 0L116.53 0L116.53 0Q112.88 0 109.88-1.39L109.88-1.39L109.88-1.39Q106.88-2.78 104.73-5.19L104.73-5.19L104.73-5.19Q102.59-7.59 101.44-10.80L101.44-10.80L101.44-10.80Q100.28-14 100.28-17.66L100.28-17.66L100.28-17.66Q100.28-21.28 101.44-24.47L101.44-24.47L101.44-24.47Q102.59-27.66 104.73-30.05L104.73-30.05L104.73-30.05Q106.88-32.44 109.88-33.81L109.88-33.81L109.88-33.81Q112.88-35.19 116.53-35.19L116.53-35.19L127.66-35.19L127.66-35.19Q131.31-35.19 134.30-33.81L134.30-33.81L134.30-33.81Q137.28-32.44 139.42-30.05L139.42-30.05L139.42-30.05Q141.56-27.66 142.72-24.47L142.72-24.47L142.72-24.47Q143.88-21.28 143.88-17.66ZM137.47-17.66L137.47-17.66L137.47-17.66Q137.47-19.97 136.80-22.02L136.80-22.02L136.80-22.02Q136.13-24.06 134.86-25.58L134.86-25.58L134.86-25.58Q133.59-27.09 131.78-27.98L131.78-27.98L131.78-27.98Q129.97-28.88 127.66-28.88L127.66-28.88L116.53-28.88L116.53-28.88Q114.22-28.88 112.39-27.98L112.39-27.98L112.39-27.98Q110.56-27.09 109.30-25.58L109.30-25.58L109.30-25.58Q108.03-24.06 107.36-22.02L107.36-22.02L107.36-22.02Q106.69-19.97 106.69-17.66L106.69-17.66L106.69-17.66Q106.69-15.34 107.36-13.30L107.36-13.30L107.36-13.30Q108.03-11.25 109.30-9.72L109.30-9.72L109.30-9.72Q110.56-8.19 112.39-7.30L112.39-7.30L112.39-7.30Q114.22-6.41 116.53-6.41L116.53-6.41L127.66-6.41L127.66-6.41Q129.97-6.41 131.78-7.30L131.78-7.30L131.78-7.30Q133.59-8.19 134.86-9.72L134.86-9.72L134.86-9.72Q136.13-11.25 136.80-13.30L136.80-13.30L136.80-13.30Q137.47-15.34 137.47-17.66ZM193.59-28.88L193.59 0L187.19 0L187.19-28.88L170.25-28.88L170.25-35.19L210.50-35.19L210.50-28.88L193.59-28.88ZM246.84-10.06L257.22 0L248.50 0L238.50-9.53L225.53-9.53L225.53-15.88L243.25-15.88L243.25-15.88Q244.59-15.88 245.78-16.41L245.78-16.41L245.78-16.41Q246.97-16.94 247.84-17.83L247.84-17.83L247.84-17.83Q248.72-18.72 249.22-19.91L249.22-19.91L249.22-19.91Q249.72-21.09 249.72-22.41L249.72-22.41L249.72-22.41Q249.72-23.75 249.22-24.92L249.22-24.92L249.22-24.92Q248.72-26.09 247.84-26.97L247.84-26.97L247.84-26.97Q246.97-27.84 245.78-28.36L245.78-28.36L245.78-28.36Q244.59-28.88 243.25-28.88L243.25-28.88L222.19-28.88L222.19 0L215.78 0L215.78-35.19L243.25-35.19L243.25-35.19Q245.91-35.19 248.25-34.17L248.25-34.17L248.25-34.17Q250.59-33.16 252.33-31.42L252.33-31.42L252.33-31.42Q254.06-29.69 255.06-27.36L255.06-27.36L255.06-27.36Q256.06-25.03 256.06-22.41L256.06-22.41L256.06-22.41Q256.06-20.25 255.38-18.27L255.38-18.27L255.38-18.27Q254.69-16.28 253.45-14.64L253.45-14.64L253.45-14.64Q252.22-13 250.53-11.81L250.53-11.81L250.53-11.81Q248.84-10.63 246.84-10.06L246.84-10.06ZM300.41-6.47L300.41 0L263.66 0L263.66-35.31L300.41-35.31L300.41-28.88L270.13-28.88L270.13-6.47L300.41-6.47ZM296.31-21.06L296.31-14.59L273.16-14.59L273.16-21.06L296.31-21.06ZM349.19-10.50L349.19-10.50L349.19-10.50Q349.19-8.31 348.36-6.41L348.36-6.41L348.36-6.41Q347.53-4.50 346.09-3.08L346.09-3.08L346.09-3.08Q344.66-1.66 342.73-0.83L342.73-0.83L342.73-0.83Q340.81 0 338.63 0L338.63 0L317.06 0L317.06-6.47L338.63-6.47L338.63-6.47Q339.50-6.47 340.25-6.78L340.25-6.78L340.25-6.78Q341-7.09 341.55-7.64L341.55-7.64L341.55-7.64Q342.09-8.19 342.41-8.92L342.41-8.92L342.41-8.92Q342.72-9.66 342.72-10.50L342.72-10.50L342.72-10.50Q342.72-11.38 342.41-12.13L342.41-12.13L342.41-12.13Q342.09-12.88 341.55-13.42L341.55-13.42L341.55-13.42Q341-13.97 340.25-14.28L340.25-14.28L340.25-14.28Q339.50-14.59 338.63-14.59L338.63-14.59L317.06-14.59L317.06-21.06L333.38-21.06L333.38-21.06Q334.31-21.09 335.13-21.41L335.13-21.41L335.13-21.41Q335.94-21.72 336.55-22.23L336.55-22.23L336.55-22.23Q337.16-22.75 337.50-23.45L337.50-23.45L337.50-23.45Q337.84-24.16 337.84-24.97L337.84-24.97L337.84-24.97Q337.84-25.81 337.53-26.52L337.53-26.52L337.53-26.52Q337.22-27.22 336.67-27.75L336.67-27.75L336.67-27.75Q336.13-28.28 335.39-28.58L335.39-28.58L335.39-28.58Q334.66-28.88 333.81-28.88L333.81-28.88L314.03-28.88L314.03 0L307.50 0L307.50-35.31L333.81-35.31L333.81-35.31Q335.97-35.31 337.89-34.50L337.89-34.50L337.89-34.50Q339.81-33.69 341.23-32.30L341.23-32.30L341.23-32.30Q342.66-30.91 343.48-29.02L343.48-29.02L343.48-29.02Q344.31-27.13 344.31-24.97L344.31-24.97L344.31-24.97Q344.31-23.59 343.95-22.38L343.95-22.38L343.95-22.38Q343.59-21.16 342.97-20.09L342.97-20.09L342.97-20.09Q344.34-19.47 345.48-18.48L345.48-18.48L345.48-18.48Q346.63-17.50 347.45-16.25L347.45-16.25L347.45-16.25Q348.28-15 348.73-13.55L348.73-13.55L348.73-13.55Q349.19-12.09 349.19-10.50ZM396.09-35.31L396.09 0L389.69 0L389.69-9.66L365.03-9.66L365.03-16.19L389.69-16.19L389.69-28.88L373.03-28.88L373.03-28.88Q370.69-28.88 368.63-27.98L368.63-27.98L368.63-27.98Q366.56-27.09 365.03-25.56L365.03-25.56L365.03-25.56Q363.50-24.03 362.61-21.98L362.61-21.98L362.61-21.98Q361.72-19.94 361.72-17.59L361.72-17.59L361.72 0L355.25 0L355.25-17.59L355.25-17.59Q355.25-21.28 356.66-24.50L356.66-24.50L356.66-24.50Q358.06-27.72 360.47-30.13L360.47-30.13L360.47-30.13Q362.88-32.53 366.13-33.92L366.13-33.92L366.13-33.92Q369.38-35.31 373.03-35.31L373.03-35.31L396.09-35.31Z" fill="#ffffff"></path></g></g><style>text {
  font-size: 64px;
  font-family: Arial Black;
  dominant-baseline: central;
  text-anchor: middle;
}</style></svg>